<svg xmlns="http://www.w3.org/2000/svg" viewBox="0 0 1200 630" width="1200" height="630" role="img" aria-label="The Midnight Cartographer — A cozy cartography shop. Open until dawn.">
  <defs>
    <radialGradient id="g" cx="28%" cy="42%" r="60%">
      <stop offset="0%" stop-color="#d4a017" stop-opacity="0.20"/>
      <stop offset="100%" stop-color="#1a0e05" stop-opacity="0"/>
    </radialGradient>
    <linearGradient id="belly" x1="0" y1="0" x2="0" y2="1">
      <stop offset="0%" stop-color="#d4a017"/>
      <stop offset="100%" stop-color="#a07810"/>
    </linearGradient>
  </defs>

  <rect width="1200" height="630" fill="#1a0e05"/>
  <rect width="1200" height="630" fill="url(#g)"/>

  <g stroke="#d4a017" stroke-opacity="0.10" stroke-width="2" stroke-linecap="round">
    <line x1="120" y1="40" x2="108" y2="120"/>
    <line x1="320" y1="0" x2="306" y2="90"/>
    <line x1="560" y1="30" x2="548" y2="110"/>
    <line x1="980" y1="10" x2="966" y2="100"/>
    <line x1="1120" y1="60" x2="1108" y2="150"/>
    <line x1="760" y1="500" x2="748" y2="580"/>
    <line x1="1040" y1="470" x2="1028" y2="560"/>
  </g>

  <g transform="translate(315,315) scale(0.92)">
    <circle r="205" fill="none" stroke="#d4a017" stroke-width="6" opacity="0.85"/>
    <polygon points="-84,-56 -28,-56 -60,-150" fill="#d4a017"/>
    <polygon points="28,-56 84,-56 60,-150" fill="#d4a017"/>
    <ellipse cx="0" cy="-10" rx="105" ry="110" fill="#d4a017"/>
    <ellipse cx="0" cy="82" rx="90" ry="84" fill="#d4a017"/>
    <ellipse cx="0" cy="90" rx="58" ry="60" fill="url(#belly)" opacity="0.5"/>
    <ellipse cx="0" cy="-13" rx="84" ry="82" fill="#dcae3a"/>
    <circle cx="-37" cy="-26" r="34" fill="#1a0e05"/>
    <circle cx="-37" cy="-26" r="27" fill="#f5e6d0"/>
    <circle cx="-37" cy="-26" r="13" fill="#241408"/>
    <circle cx="37" cy="-26" r="34" fill="#1a0e05"/>
    <circle cx="37" cy="-26" r="27" fill="#f5e6d0"/>
    <circle cx="37" cy="-26" r="13" fill="#241408"/>
    <polygon points="-13,6 13,6 0,34" fill="#a07810"/>
  </g>

  <g font-family="Georgia, 'Times New Roman', serif">
    <text x="600" y="250" fill="#d4a017" font-size="76" font-weight="700">The Midnight</text>
    <text x="600" y="332" fill="#d4a017" font-size="76" font-weight="700">Cartographer</text>
    <text x="602" y="392" fill="#a07810" font-size="34" font-style="italic">A cozy cartography shop. Open until dawn.</text>
    <line x1="602" y1="430" x2="1080" y2="430" stroke="#8b5e3c" stroke-width="1" opacity="0.6"/>
    <text x="602" y="478" fill="#c4b49a" font-size="26">Free on the Amazon Appstore · No ads · Fully offline</text>
  </g>
</svg>
